<svg width="106" height="106" viewBox="0 0 106 106" fill="none" xmlns="http://www.w3.org/2000/svg">
<path d="M52.9999 15.9001C43.1603 15.9001 33.7238 19.8088 26.7662 26.7664C19.8086 33.724 15.8999 43.1606 15.8999 53.0001V58.3001H23.8499C24.5527 58.3001 25.2267 58.5793 25.7237 59.0763C26.2207 59.5732 26.4999 60.2473 26.4999 60.9501V92.7501C26.4999 93.4529 26.2207 94.127 25.7237 94.6239C25.2267 95.1209 24.5527 95.4001 23.8499 95.4001H21.1999C18.3886 95.4001 15.6924 94.2833 13.7045 92.2954C11.7166 90.3075 10.5999 87.6114 10.5999 84.8001V53.0001C10.5999 41.7549 15.067 30.9703 23.0185 23.0188C30.9701 15.0672 41.7547 10.6001 52.9999 10.6001C64.245 10.6001 75.0296 15.0672 82.9812 23.0188C90.9327 30.9703 95.3999 41.7549 95.3999 53.0001V84.8001C95.3999 87.6114 94.2831 90.3075 92.2952 92.2954C90.3073 94.2833 87.6112 95.4001 84.7999 95.4001H82.1499C81.447 95.4001 80.773 95.1209 80.276 94.6239C79.7791 94.127 79.4999 93.4529 79.4999 92.7501V60.9501C79.4999 60.2473 79.7791 59.5732 80.276 59.0763C80.773 58.5793 81.447 58.3001 82.1499 58.3001H90.0999V53.0001C90.0999 43.1606 86.1911 33.724 79.2335 26.7664C72.2759 19.8088 62.8394 15.9001 52.9999 15.9001ZM55.6499 55.6501C55.6499 54.9473 55.3707 54.2732 54.8737 53.7763C54.3767 53.2793 53.7027 53.0001 52.9999 53.0001C52.297 53.0001 51.623 53.2793 51.126 53.7763C50.6291 54.2732 50.3499 54.9473 50.3499 55.6501V92.7501C50.3499 93.4529 50.6291 94.127 51.126 94.6239C51.623 95.1209 52.297 95.4001 52.9999 95.4001C53.7027 95.4001 54.3767 95.1209 54.8737 94.6239C55.3707 94.127 55.6499 93.4529 55.6499 92.7501V55.6501ZM39.7499 63.6001C40.4527 63.6001 41.1267 63.8793 41.6237 64.3763C42.1207 64.8732 42.3999 65.5473 42.3999 66.2501V87.4501C42.3999 88.1529 42.1207 88.827 41.6237 89.3239C41.1267 89.8209 40.4527 90.1001 39.7499 90.1001C39.047 90.1001 38.373 89.8209 37.876 89.3239C37.379 88.827 37.0999 88.1529 37.0999 87.4501V66.2501C37.0999 65.5473 37.379 64.8732 37.876 64.3763C38.373 63.8793 39.047 63.6001 39.7499 63.6001ZM68.8999 66.2501C68.8999 65.5473 68.6207 64.8732 68.1237 64.3763C67.6267 63.8793 66.9527 63.6001 66.2499 63.6001C65.547 63.6001 64.873 63.8793 64.376 64.3763C63.879 64.8732 63.5999 65.5473 63.5999 66.2501V87.4501C63.5999 88.1529 63.879 88.827 64.376 89.3239C64.873 89.8209 65.547 90.1001 66.2499 90.1001C66.9527 90.1001 67.6267 89.8209 68.1237 89.3239C68.6207 88.827 68.8999 88.1529 68.8999 87.4501V66.2501Z" fill="white"/>
</svg>
