<svg width="78" height="17" viewBox="0 0 78 17" fill="none" xmlns="http://www.w3.org/2000/svg">
<path d="M8.328 8.058C9.14933 8.24867 9.76533 8.68133 10.176 9.356C10.5867 10.016 10.792 10.7493 10.792 11.556C10.792 12.8613 10.3593 13.932 9.494 14.768C8.64333 15.5893 7.492 16 6.04 16H0.584V1.216H5.006C6.61933 1.216 7.866 1.546 8.746 2.206C9.64067 2.866 10.088 3.82667 10.088 5.088C10.088 5.80667 9.91933 6.43733 9.582 6.98C9.24467 7.508 8.82667 7.86733 8.328 8.058ZM2.696 3.328V7.024H5.336C7.096 7.024 7.976 6.408 7.976 5.176C7.976 3.944 7.096 3.328 5.336 3.328H2.696ZM5.688 13.888C6.62667 13.888 7.36 13.69 7.888 13.294C8.416 12.898 8.68 12.304 8.68 11.512C8.68 10.72 8.416 10.126 7.888 9.73C7.36 9.334 6.62667 9.136 5.688 9.136H2.696V13.888H5.688ZM22.7638 10.764C22.7638 11.0867 22.7418 11.3947 22.6978 11.688H14.7118C14.8731 12.48 15.2618 13.074 15.8778 13.47C16.5084 13.866 17.2638 14.064 18.1438 14.064C19.2878 14.064 20.3584 13.712 21.3558 13.008L22.0598 14.9C21.0478 15.7507 19.7278 16.176 18.0998 16.176C16.3251 16.176 14.9538 15.6627 13.9858 14.636C13.0324 13.5947 12.5558 12.2893 12.5558 10.72C12.5558 9.16533 13.0324 7.86733 13.9858 6.826C14.9538 5.78467 16.2298 5.264 17.8138 5.264C19.2511 5.264 20.4318 5.76267 21.3558 6.76C22.2944 7.75733 22.7638 9.092 22.7638 10.764ZM14.7118 9.752H20.6078C20.5784 9.15067 20.3218 8.608 19.8378 8.124C19.3538 7.62533 18.6498 7.376 17.7258 7.376C16.8311 7.376 16.1124 7.62533 15.5698 8.124C15.0271 8.62267 14.7411 9.16533 14.7118 9.752ZM24.8828 0.511999H26.9948V16H24.8828V0.511999ZM38.0921 5.44H40.2041V16H38.0921V14.46C37.2121 15.604 36.0388 16.176 34.5721 16.176C33.0468 16.176 31.7854 15.648 30.7881 14.592C29.7908 13.536 29.2921 12.2453 29.2921 10.72C29.2921 9.19467 29.7908 7.904 30.7881 6.848C31.7854 5.792 33.0468 5.264 34.5721 5.264C36.0388 5.264 37.2121 5.836 38.0921 6.98V5.44ZM32.3721 13.096C33.0321 13.7413 33.8241 14.064 34.7481 14.064C35.6721 14.064 36.4568 13.7413 37.1021 13.096C37.7621 12.436 38.0921 11.644 38.0921 10.72C38.0921 9.796 37.7621 9.01133 37.1021 8.366C36.4568 7.706 35.6721 7.376 34.7481 7.376C33.8241 7.376 33.0321 7.706 32.3721 8.366C31.7268 9.01133 31.4041 9.796 31.4041 10.72C31.4041 11.644 31.7268 12.436 32.3721 13.096ZM45.321 7.706C45.6877 6.94333 46.2377 6.34933 46.971 5.924C47.7043 5.484 48.5623 5.264 49.545 5.264V7.574C48.929 7.38333 48.2837 7.41267 47.609 7.662C46.0837 8.24867 45.321 9.45867 45.321 11.292V16H43.209V5.44H45.321V7.706ZM55.7576 16.176C54.4816 16.176 53.4769 15.78 52.7436 14.988C52.0249 14.196 51.6656 13.0373 51.6656 11.512V5.44H53.7776V11.336C53.7776 12.2307 53.9536 12.9127 54.3056 13.382C54.6723 13.8367 55.2883 14.064 56.1536 14.064C56.8576 14.064 57.5176 13.8073 58.1336 13.294C58.7496 12.766 59.0576 12.084 59.0576 11.248V5.44H61.1696V16H59.0576V14.768C58.2363 15.7067 57.1363 16.176 55.7576 16.176ZM68.4023 9.488C70.9689 9.98667 72.2523 11.0573 72.2523 12.7C72.2523 13.7707 71.8856 14.6213 71.1523 15.252C70.4189 15.868 69.3776 16.176 68.0283 16.176C67.0016 16.176 66.0629 16.0073 65.2123 15.67C64.3763 15.3327 63.7896 15.0027 63.4523 14.68L64.2883 12.612C64.6989 13.0227 65.2563 13.3673 65.9603 13.646C66.6789 13.91 67.3463 14.0493 67.9623 14.064C68.6223 14.0787 69.1503 13.976 69.5463 13.756C69.9423 13.536 70.1403 13.2647 70.1403 12.942C70.1403 12.5753 69.9716 12.2967 69.6343 12.106C69.2969 11.9007 68.7763 11.732 68.0723 11.6C66.4296 11.3067 65.3076 10.9033 64.7063 10.39C64.1049 9.87667 63.8043 9.17267 63.8043 8.278C63.8043 7.38333 64.1929 6.65733 64.9703 6.1C65.7623 5.54267 66.8036 5.264 68.0943 5.264C69.3996 5.264 70.6756 5.60133 71.9223 6.276L71.1963 8.256C70.9176 8.05067 70.4776 7.86 69.8763 7.684C69.2896 7.49333 68.6956 7.39067 68.0943 7.376C67.4929 7.36133 66.9796 7.42733 66.5543 7.574C66.1289 7.72067 65.9163 7.96267 65.9163 8.3C65.9163 8.476 65.9676 8.63 66.0703 8.762C66.1876 8.87933 66.3563 8.982 66.5763 9.07C66.8109 9.14333 67.0309 9.20933 67.2363 9.268C67.4416 9.312 67.7129 9.36333 68.0503 9.422C68.2116 9.45133 68.3289 9.47333 68.4023 9.488ZM75.9586 16.176C75.5186 16.176 75.1446 16.022 74.8366 15.714C74.5286 15.406 74.3746 15.032 74.3746 14.592C74.3746 14.1373 74.5286 13.7633 74.8366 13.47C75.1446 13.162 75.5186 13.008 75.9586 13.008C76.4132 13.008 76.7872 13.162 77.0806 13.47C77.3886 13.7633 77.5426 14.1373 77.5426 14.592C77.5426 15.032 77.3886 15.406 77.0806 15.714C76.7872 16.022 76.4132 16.176 75.9586 16.176Z" fill="#195E74"/>
</svg>
