<svg width="19" height="19" viewBox="0 0 19 19" fill="none" xmlns="http://www.w3.org/2000/svg">
<path d="M8.01588 1.1875C8.25209 1.1875 8.47862 1.28133 8.64565 1.44836C8.81267 1.61538 8.90651 1.84192 8.90651 2.07812V9.5C8.90651 9.65747 8.96906 9.8085 9.08041 9.91985C9.19176 10.0312 9.34278 10.0938 9.50026 10.0938C9.65773 10.0938 9.80875 10.0312 9.9201 9.91985C10.0315 9.8085 10.094 9.65747 10.094 9.5V6.49206L10.1961 6.48731C10.5726 6.47306 10.9526 6.47781 11.1651 6.51937C11.3243 6.55144 11.5143 6.63337 11.6971 6.7355C11.7886 6.78538 11.8753 6.91006 11.8753 7.10838V9.5C11.8753 9.65747 11.9378 9.8085 12.0492 9.91985C12.1605 10.0312 12.3115 10.0938 12.469 10.0938C12.6265 10.0938 12.7775 10.0312 12.8889 9.91985C13.0002 9.8085 13.0628 9.65747 13.0628 9.5V7.64156L13.1886 7.62969C13.5639 7.60119 13.8821 7.61781 14.0294 7.67719C14.1695 7.73181 14.3856 7.923 14.6065 8.18781C14.7027 8.30181 14.7846 8.41344 14.844 8.49537V10.0938C14.844 10.2512 14.9066 10.4022 15.0179 10.5136C15.1293 10.6249 15.2803 10.6875 15.4378 10.6875C15.5952 10.6875 15.7463 10.6249 15.8576 10.5136C15.9689 10.4022 16.0315 10.2512 16.0315 10.0938V8.90625H16.4376C16.6036 8.90625 16.7677 8.94103 16.9194 9.00836C17.0711 9.07569 17.207 9.17407 17.3183 9.29714C17.4296 9.42022 17.5139 9.56527 17.5658 9.72293C17.6176 9.8806 17.6358 10.0474 17.6192 10.2125L17.2974 13.4366C17.2558 13.8509 17.1276 14.2518 16.9209 14.6134L15.2644 17.5133C15.2125 17.6041 15.1375 17.6797 15.047 17.7322C14.9564 17.7848 14.8537 17.8125 14.749 17.8125H7.26538C7.15521 17.8125 7.0472 17.7818 6.95346 17.724C6.85972 17.6661 6.78393 17.5833 6.73457 17.4848L5.27157 14.5576L2.28857 9.58788C2.21193 9.45938 2.18485 9.30733 2.21241 9.16028C2.23997 9.01323 2.32028 8.8813 2.43825 8.78929C2.55623 8.69727 2.70374 8.6515 2.85307 8.66057C3.00241 8.66965 3.14329 8.73294 3.24926 8.83856L6.11113 11.7004C6.1941 11.7836 6.29988 11.8403 6.41509 11.8633C6.53029 11.8864 6.64974 11.8747 6.75832 11.8298C6.86689 11.785 6.95972 11.7089 7.02503 11.6112C7.09035 11.5136 7.12523 11.3987 7.12526 11.2812V2.07812C7.12526 1.84192 7.21909 1.61538 7.38611 1.44836C7.55314 1.28133 7.77967 1.1875 8.01588 1.1875ZM10.094 5.30338V2.07812C10.094 1.52697 9.87506 0.998393 9.48534 0.608669C9.09561 0.218945 8.56703 0 8.01588 0C7.46473 0 6.93615 0.218945 6.54642 0.608669C6.1567 0.998393 5.93776 1.52697 5.93776 2.07812V9.84794L4.08882 7.999C3.77773 7.68963 3.36444 7.50442 2.92649 7.47812C2.48855 7.45183 2.05606 7.58626 1.7102 7.85619C1.36433 8.12612 1.12886 8.51299 1.04797 8.94421C0.967088 9.37542 1.04635 9.82133 1.27088 10.1983L4.22894 15.1299L5.67176 18.0156C5.81976 18.3115 6.04724 18.5603 6.32872 18.7342C6.61019 18.9081 6.93453 19.0001 7.26538 19H14.749C15.063 18.9999 15.3713 18.9168 15.6429 18.7592C15.9144 18.6015 16.1394 18.3749 16.2951 18.1023L17.9517 15.2036C18.2413 14.6969 18.4209 14.1349 18.4789 13.5541L18.8008 10.3301C18.8338 9.9999 18.7972 9.66648 18.6935 9.3513C18.5898 9.03612 18.4212 8.74617 18.1985 8.50014C17.9759 8.25412 17.7041 8.05747 17.4009 7.92289C17.0976 7.7883 16.7694 7.71876 16.4376 7.71875H15.7477C15.6736 7.61823 15.5963 7.52001 15.5161 7.42425C15.2893 7.15231 14.9105 6.74975 14.4711 6.574C14.0389 6.40062 13.4665 6.41725 13.096 6.44575L12.9393 6.46C12.8128 6.13637 12.5777 5.86683 12.2743 5.69762C12.0011 5.54006 11.7056 5.42476 11.3979 5.35563C11.0298 5.282 10.5203 5.28675 10.151 5.301L10.094 5.30338Z" fill="white" fill-opacity="0.8"/>
</svg>
